<?xml version="1.0" encoding="utf-8"?>
<!-- Generator: Adobe Illustrator 27.1.1, SVG Export Plug-In . SVG Version: 6.00 Build 0)  -->
<svg version="1.1" id="Layer_1" xmlns="http://www.w3.org/2000/svg" xmlns:xlink="http://www.w3.org/1999/xlink" x="0px" y="0px"
	 viewBox="0 0 130 100" style="enable-background:new 0 0 130 100;" xml:space="preserve">
<style type="text/css">
	.st0{display:none;fill:#594A42;}
	.st1{display:none;}
	.st2{display:inline;fill:none;stroke:#FFFFFF;stroke-width:4;stroke-linecap:round;stroke-linejoin:round;stroke-miterlimit:10;}
	.st3{display:inline;fill:#FFFFFF;}
	.st4{fill:none;stroke:#FFFFFF;stroke-width:4;stroke-linecap:round;stroke-linejoin:round;stroke-miterlimit:10;}
	.st5{fill:#FFFFFF;}
</style>
<rect x="-26.51" y="-16.68" class="st0" width="185.17" height="144.15"/>
<g class="st1">
	<line class="st2" x1="6.36" y1="98" x2="126.49" y2="98"/>
	<path class="st3" d="M119.93,42.63c-4.36-4.72-10.36-4.65-11.12-4.62H11.09c-1.1,0-2,0.9-2,2v49.38c0,1.1,0.9,2,2,2h6.65
		c0.58,4.85,4.71,8.62,9.71,8.62s9.13-3.77,9.71-8.62h4.15c0.58,4.85,4.71,8.62,9.71,8.62s9.13-3.77,9.71-8.62H94.5
		c0.58,4.85,4.71,8.62,9.71,8.62s9.13-3.77,9.71-8.62h8.52c1.1,0,2-0.9,2-2V53.93C124.44,53.66,124.39,47.45,119.93,42.63z
		 M86.92,62.69V49.3h11.64v13.39H86.92z M72.09,62.69V49.3h10.84v13.39H72.09z M57.01,62.69V49.3h11.08v13.39H57.01z M42.26,62.69
		V49.3h10.75v13.39H42.26z M26.69,62.69V49.3h11.58v13.39H26.69z M13.09,62.69V49.3h9.59v13.39H13.09z M102.57,49.3h16.86
		c0.97,2.48,1.01,4.6,1.01,4.63v18.05h-10.76c-4.99,0-7.11-2.18-7.11-7.28V49.3z M108.85,42.01c0.03,0,0.08,0,0.11,0
		c0.05,0,4.74-0.19,7.99,3.29H13.09v-3.29H108.85z M27.45,96c-3.19,0-5.79-2.6-5.79-5.79s2.6-5.79,5.79-5.79s5.79,2.6,5.79,5.79
		S30.65,96,27.45,96z M51.03,96c-3.19,0-5.79-2.6-5.79-5.79s2.6-5.79,5.79-5.79s5.79,2.6,5.79,5.79S54.22,96,51.03,96z M104.21,96
		c-3.19,0-5.79-2.6-5.79-5.79s2.6-5.79,5.79-5.79s5.79,2.6,5.79,5.79S107.4,96,104.21,96z M113.58,87.38
		c-1.22-4.02-4.95-6.96-9.37-6.96s-8.15,2.94-9.37,6.96H60.39c-1.22-4.02-4.95-6.96-9.37-6.96s-8.15,2.94-9.37,6.96h-4.84
		c-1.22-4.02-4.95-6.96-9.37-6.96s-8.15,2.94-9.37,6.96h-4.99V66.69h85.59c0.68,6,4.52,9.28,10.99,9.28h10.76v11.41H113.58z"/>
</g>
<g class="st1">
	<polyline class="st2" points="2.42,97.11 67.41,97.11 67.41,72.77 52.23,44.51 22.66,44.51 8.53,72.25 8.53,97.11 	"/>
	<rect x="46.48" y="77.22" class="st2" width="12.04" height="19.89"/>
	<polyline class="st2" points="8.53,72.25 38.23,72.25 52.23,44.51 	"/>
	<line class="st2" x1="13.47" y1="62.55" x2="42.43" y2="62.55"/>
	<line class="st2" x1="18.48" y1="53.74" x2="47.44" y2="53.74"/>
	<line class="st2" x1="32.18" y1="45.32" x2="19.11" y2="71.44"/>
	<line class="st2" x1="41.66" y1="45.32" x2="28.58" y2="71.44"/>
	<line class="st2" x1="2.42" y1="97.52" x2="128.1" y2="97.52"/>
	<polyline class="st2" points="81.69,45.7 81.69,39.81 91.6,29.9 114.95,29.9 124.86,39.81 124.86,45.7 	"/>
	<polyline class="st2" points="81.69,68.76 81.69,62.87 91.6,52.96 114.95,52.96 124.86,62.87 124.86,68.76 	"/>
	<line class="st2" x1="81.69" y1="39.81" x2="124.86" y2="39.81"/>
	<line class="st2" x1="81.69" y1="62.97" x2="124.86" y2="62.97"/>
	<polyline class="st2" points="114.76,68.86 84.53,96.73 91.79,68.86 91.79,28.04 98.07,18.21 108.48,18.21 114.76,28.04 
		114.76,68.86 122.02,96.73 91.79,68.86 	"/>
</g>
<g class="st1">
	<polyline class="st2" points="14.7,97.52 125.91,97.52 125.91,70.7 109.19,39.56 76.6,39.56 61.03,70.12 61.03,97.52 	"/>
	<rect x="102.84" y="75.6" class="st2" width="13.26" height="21.91"/>
	<polyline class="st2" points="61.03,70.12 93.76,70.12 109.19,39.56 	"/>
	<line class="st2" x1="66.48" y1="59.44" x2="98.38" y2="59.44"/>
	<line class="st2" x1="71.99" y1="49.72" x2="103.9" y2="49.72"/>
	<line class="st2" x1="87.09" y1="40.45" x2="72.68" y2="69.23"/>
	<line class="st2" x1="97.53" y1="40.45" x2="83.12" y2="69.23"/>
	<line class="st2" x1="28.09" y1="97.52" x2="28.09" y2="52.1"/>
	<line class="st2" x1="28.09" y1="62.03" x2="14.25" y2="55.52"/>
	<line class="st2" x1="28.09" y1="72.84" x2="41.93" y2="64.9"/>
	<circle class="st2" cx="27.99" cy="61.65" r="23.9"/>
</g>
<g class="st1">
	<rect x="22.47" y="66.32" class="st2" width="86.33" height="31.38"/>
	<path class="st2" d="M77.98,97.7H52.3V38.28c0,0,1.16-10.6,12.84-10.6s12.84,10.6,12.84,10.6V97.7z"/>
	<circle class="st2" cx="65.14" cy="41.17" r="4.72"/>
	<rect x="59.75" y="76.72" class="st2" width="11.43" height="20.99"/>
	<line class="st2" x1="52.3" y1="76.72" x2="22.47" y2="76.72"/>
	<line class="st2" x1="108.8" y1="76.72" x2="78.97" y2="76.72"/>
	<line class="st2" x1="77.98" y1="55.34" x2="53.46" y2="55.34"/>
	<line class="st2" x1="65.72" y1="26.99" x2="65.72" y2="11.97"/>
	<line class="st2" x1="93.89" y1="97.71" x2="93.89" y2="77.55"/>
	<line class="st2" x1="37.38" y1="97.71" x2="37.38" y2="77.55"/>
	<rect x="65.72" y="11.97" class="st2" width="12.26" height="7.51"/>
	<line class="st2" x1="16.51" y1="97.71" x2="113.49" y2="97.71"/>
</g>
<g>
	<line class="st4" x1="30.3" y1="97.95" x2="97.13" y2="97.95"/>
	<g>
		<path class="st5" d="M54.07,42.83l1.44-3.07c-2.95-2.33-4.85-5.93-4.85-9.97c0-4.29,2.15-8.09,5.41-10.39l-1.44-3.03
			c-4.38,2.86-7.29,7.81-7.29,13.42C47.33,35.16,50,39.92,54.07,42.83z"/>
		<path class="st5" d="M76.07,29.79c0,4.17-2.03,7.87-5.15,10.19l1.46,3.06c4.23-2.89,7.02-7.75,7.02-13.25
			c0-5.64-2.94-10.6-7.35-13.46l-1.43,3.04C73.9,21.67,76.07,25.48,76.07,29.79z"/>
		<path class="st5" d="M38.57,29.79c0,8.88,4.7,16.68,11.73,21.06l1.42-3.03c-5.91-3.83-9.83-10.48-9.83-18.03
			c0-7.78,4.16-14.61,10.37-18.37l-1.43-3.01C43.51,12.72,38.57,20.69,38.57,29.79z"/>
		<path class="st5" d="M47.89,56c-8.95-5.31-14.97-15.06-14.97-26.21c0-11.35,6.25-21.27,15.48-26.5l-1.43-3.01
			C36.61,6.06,29.59,17.12,29.59,29.79c0,12.47,6.8,23.38,16.88,29.23L47.89,56z"/>
		<path class="st5" d="M84.83,29.79c0,7.66-4.04,14.4-10.1,18.2l1.44,3.02c7.18-4.35,11.99-12.23,11.99-21.22
			c0-9.14-4.98-17.14-12.37-21.44l-1.42,3.02C80.63,15.12,84.83,21.97,84.83,29.79z"/>
		<path class="st5" d="M79.61,0.2l-1.42,3.02c9.31,5.22,15.61,15.17,15.61,26.57c0,11.24-6.12,21.06-15.2,26.34l1.43,3.01
			c10.2-5.82,17.1-16.79,17.1-29.35C97.13,17.06,90.05,5.95,79.61,0.2z"/>
		<path class="st5" d="M84.44,98.56c0.03-0.08,0.05-0.16,0.07-0.25c0.01-0.03,0.02-0.06,0.02-0.1c0.02-0.12,0.03-0.24,0.02-0.36
			c0-0.02-0.01-0.03-0.01-0.05c-0.01-0.1-0.03-0.21-0.05-0.31c0-0.01,0-0.02-0.01-0.03L71.43,53.73c0,0,0,0,0,0l-4.59-15.39
			c-0.21-0.7-0.86-1.19-1.59-1.19h-4c-0.73,0-1.38,0.48-1.59,1.19L42,97.47c0,0.01,0,0.02-0.01,0.03c-0.03,0.11-0.05,0.22-0.06,0.34
			c0,0.01,0,0.01,0,0.02c-0.01,0.12,0,0.24,0.02,0.36c0.01,0.03,0.02,0.07,0.02,0.1c0.02,0.08,0.04,0.16,0.07,0.24
			c0.02,0.04,0.03,0.08,0.05,0.11c0.03,0.07,0.07,0.14,0.12,0.2c0.01,0.02,0.02,0.04,0.04,0.07c0.01,0.02,0.03,0.03,0.05,0.05
			c0.02,0.02,0.03,0.05,0.05,0.07c0.03,0.03,0.07,0.06,0.1,0.09c0.04,0.04,0.08,0.07,0.12,0.11c0.06,0.05,0.12,0.08,0.19,0.12
			c0.04,0.02,0.08,0.05,0.12,0.07c0.07,0.04,0.15,0.06,0.23,0.08c0.04,0.01,0.08,0.03,0.12,0.04c0.12,0.03,0.24,0.04,0.36,0.04
			c0,0,0,0,0.01,0h39.3c0,0,0,0,0.01,0c0.12,0,0.24-0.02,0.36-0.04c0.04-0.01,0.08-0.02,0.12-0.04c0.08-0.02,0.15-0.05,0.23-0.08
			c0.04-0.02,0.08-0.05,0.13-0.07c0.06-0.04,0.12-0.07,0.18-0.12c0.04-0.03,0.08-0.07,0.12-0.11c0.03-0.03,0.06-0.05,0.09-0.08
			c0.02-0.02,0.04-0.05,0.06-0.08c0.01-0.02,0.03-0.03,0.05-0.05c0.01-0.02,0.02-0.04,0.04-0.06c0.04-0.07,0.08-0.13,0.12-0.2
			C84.4,98.64,84.42,98.6,84.44,98.56z M52.84,72.79l8.04,7.34l-14,12.62L52.84,72.79z M57.49,57.21l3.19,2.81l-5.44,4.74
			L57.49,57.21z M71.31,64.95l-5.58-4.92L69,57.2L71.31,64.95z M72.06,70.05l-8.7,7.84l-8.86-8.08l8.69-7.57L72.06,70.05z
			 M63.35,82.38l15.25,13.91H47.92L63.35,82.38z M65.84,80.14l7.89-7.11l5.87,19.65L65.84,80.14z M62.49,40.48h1.52l3.95,13.22
			l-4.74,4.12l-4.67-4.12L62.49,40.48z"/>
		<circle class="st5" cx="63.36" cy="29.79" r="5.57"/>
	</g>
</g>
</svg>
